<svg width="17" height="16" viewBox="0 0 17 16" fill="none" xmlns="http://www.w3.org/2000/svg">
<path opacity="0.7" d="M8.5 16C6.37827 16 4.34344 15.1571 2.84315 13.6569C1.34285 12.1566 0.5 10.1217 0.5 8C0.5 5.87827 1.34285 3.84344 2.84315 2.34315C4.34344 0.842855 6.37827 0 8.5 0C10.6217 0 12.6566 0.842855 14.1569 2.34315C15.6571 3.84344 16.5 5.87827 16.5 8C16.5 10.1217 15.6571 12.1566 14.1569 13.6569C12.6566 15.1571 10.6217 16 8.5 16ZM8.5 14C10.0913 14 11.6174 13.3679 12.7426 12.2426C13.8679 11.1174 14.5 9.5913 14.5 8C14.5 6.4087 13.8679 4.88258 12.7426 3.75736C11.6174 2.63214 10.0913 2 8.5 2C6.9087 2 5.38258 2.63214 4.25736 3.75736C3.13214 4.88258 2.5 6.4087 2.5 8C2.5 9.5913 3.13214 11.1174 4.25736 12.2426C5.38258 13.3679 6.9087 14 8.5 14Z" fill="white"/>
</svg>
