<svg width="16" height="9" viewBox="0 0 16 9" fill="none" xmlns="http://www.w3.org/2000/svg">
<path d="M7.66029 8.99998C7.47708 8.99998 7.29937 8.96563 7.12716 8.89692C6.95495 8.82822 6.81204 8.73662 6.69846 8.62212L0.377861 2.30152C0.125953 2.04961 0 1.729 0 1.33969C0 0.950379 0.125953 0.629769 0.377861 0.377861C0.629769 0.125953 0.950379 0 1.33969 0C1.729 0 2.04961 0.125953 2.30152 0.377861L7.66029 5.73663L13.0191 0.377861C13.271 0.125953 13.5916 0 13.9809 0C14.3702 0 14.6908 0.125953 14.9427 0.377861C15.1946 0.629769 15.3206 0.950379 15.3206 1.33969C15.3206 1.729 15.1946 2.04961 14.9427 2.30152L8.62212 8.62212C8.48471 8.75952 8.33586 8.85708 8.17555 8.91479C8.01525 8.9725 7.84349 9.00089 7.66029 8.99998Z" fill="white"/>
</svg>
