<svg width="362" height="348" viewBox="0 0 362 348" fill="none" xmlns="http://www.w3.org/2000/svg">
<rect x="12.2944" y="107.188" width="183" height="173" rx="8" fill="#C1EED8"/>
<rect x="12.2944" y="290.188" width="336" height="57" rx="8" fill="#C1EED8"/>
<rect x="207.294" y="107.188" width="141" height="173" rx="8" fill="#C1EED8"/>
<path d="M276.732 24.1447C277.532 23.1422 279.057 23.1422 279.857 24.1447L347.58 108.94C348.626 110.25 347.694 112.188 346.018 112.188H210.571C208.895 112.188 207.962 110.25 209.008 108.94L276.732 24.1447Z" fill="#C1EED8"/>
<path d="M71.7943 3.18789L1.79431 88.1879C-2.81747 93.7879 2.5394 95.1879 5.79431 95.1879H201.794L268.794 13.6879C273.194 9.68787 280.294 10.3545 283.294 11.1879L352.294 95.1879C359.094 98.3879 360.461 93.8545 360.294 91.1879L281.794 0.687889H81.2943C78.4943 -1.31211 73.7943 1.52122 71.7943 3.18789Z" fill="#1AD079"/>
<path d="M45.0391 254H42.8672L41.0781 251C40.9167 250.724 40.7578 250.49 40.6016 250.297C40.4505 250.099 40.2943 249.938 40.1328 249.812C39.9766 249.688 39.8047 249.596 39.6172 249.539C39.4297 249.482 39.2188 249.453 38.9844 249.453H38.2344V254H36.3828V242.797H40.0703C40.5964 242.797 41.0807 242.859 41.5234 242.984C41.9661 243.109 42.3516 243.299 42.6797 243.555C43.0078 243.805 43.263 244.12 43.4453 244.5C43.6328 244.875 43.7266 245.315 43.7266 245.82C43.7266 246.216 43.6667 246.581 43.5469 246.914C43.4323 247.242 43.2656 247.536 43.0469 247.797C42.8333 248.052 42.5729 248.271 42.2656 248.453C41.9635 248.635 41.6224 248.776 41.2422 248.875V248.906C41.4453 249.021 41.6224 249.148 41.7734 249.289C41.9245 249.424 42.0677 249.565 42.2031 249.711C42.3385 249.857 42.4714 250.023 42.6016 250.211C42.737 250.393 42.8854 250.607 43.0469 250.852L45.0391 254ZM38.2344 244.305V247.945H39.7812C40.0677 247.945 40.3307 247.901 40.5703 247.812C40.8151 247.724 41.026 247.596 41.2031 247.43C41.3802 247.263 41.5182 247.06 41.6172 246.82C41.7161 246.581 41.7656 246.312 41.7656 246.016C41.7656 245.479 41.5964 245.06 41.2578 244.758C40.9193 244.456 40.4323 244.305 39.7969 244.305H38.2344ZM52.5 250.492H47.0469C47.0677 251.232 47.2943 251.802 47.7266 252.203C48.1641 252.604 48.763 252.805 49.5234 252.805C50.3776 252.805 51.1615 252.549 51.875 252.039V253.5C51.1458 253.958 50.1823 254.188 48.9844 254.188C47.8073 254.188 46.8828 253.826 46.2109 253.102C45.5443 252.372 45.2109 251.349 45.2109 250.031C45.2109 248.786 45.5781 247.773 46.3125 246.992C47.0521 246.206 47.9688 245.812 49.0625 245.812C50.1562 245.812 51.0026 246.164 51.6016 246.867C52.2005 247.57 52.5 248.547 52.5 249.797V250.492ZM50.75 249.211C50.7448 248.56 50.5911 248.055 50.2891 247.695C49.987 247.331 49.5703 247.148 49.0391 247.148C48.5182 247.148 48.0755 247.339 47.7109 247.719C47.3516 248.099 47.1302 248.596 47.0469 249.211H50.75ZM58.75 243.633C58.5052 243.492 58.2266 243.422 57.9141 243.422C57.0339 243.422 56.5938 243.919 56.5938 244.914V246H58.4531V247.422H56.6016V254H54.7891V247.422H53.4219V246H54.7891V244.703C54.7891 243.859 55.0651 243.195 55.6172 242.711C56.1693 242.221 56.8594 241.977 57.6875 241.977C58.1354 241.977 58.4896 242.026 58.75 242.125V243.633ZM66.5156 250.492H61.0625C61.0833 251.232 61.3099 251.802 61.7422 252.203C62.1797 252.604 62.7786 252.805 63.5391 252.805C64.3932 252.805 65.1771 252.549 65.8906 252.039V253.5C65.1615 253.958 64.1979 254.188 63 254.188C61.8229 254.188 60.8984 253.826 60.2266 253.102C59.5599 252.372 59.2266 251.349 59.2266 250.031C59.2266 248.786 59.5938 247.773 60.3281 246.992C61.0677 246.206 61.9844 245.812 63.0781 245.812C64.1719 245.812 65.0182 246.164 65.6172 246.867C66.2161 247.57 66.5156 248.547 66.5156 249.797V250.492ZM64.7656 249.211C64.7604 248.56 64.6068 248.055 64.3047 247.695C64.0026 247.331 63.5859 247.148 63.0547 247.148C62.5339 247.148 62.0911 247.339 61.7266 247.719C61.3672 248.099 61.1458 248.596 61.0625 249.211H64.7656ZM72.8828 247.727C72.6641 247.555 72.349 247.469 71.9375 247.469C71.401 247.469 70.9531 247.711 70.5938 248.195C70.2344 248.68 70.0547 249.339 70.0547 250.172V254H68.2422V246H70.0547V247.648H70.0859C70.263 247.086 70.5339 246.648 70.8984 246.336C71.2682 246.018 71.6797 245.859 72.1328 245.859C72.4609 245.859 72.7109 245.909 72.8828 246.008V247.727ZM80.3047 254H78.5469V252.75H78.5156C77.9635 253.708 77.1536 254.188 76.0859 254.188C75.2995 254.188 74.6823 253.974 74.2344 253.547C73.7917 253.12 73.5703 252.555 73.5703 251.852C73.5703 250.341 74.4401 249.461 76.1797 249.211L78.5547 248.875C78.5547 247.734 78.013 247.164 76.9297 247.164C75.9766 247.164 75.1172 247.492 74.3516 248.148V246.562C75.1953 246.062 76.1693 245.812 77.2734 245.812C79.2943 245.812 80.3047 246.807 80.3047 248.797V254ZM78.5547 250.07L76.875 250.305C76.3542 250.372 75.9609 250.5 75.6953 250.688C75.4349 250.87 75.3047 251.193 75.3047 251.656C75.3047 251.995 75.4245 252.273 75.6641 252.492C75.9089 252.706 76.2344 252.812 76.6406 252.812C77.1927 252.812 77.6484 252.62 78.0078 252.234C78.3724 251.844 78.5547 251.354 78.5547 250.766V250.07ZM84.3438 254H82.5234V242.156H84.3438V254ZM86.2109 253.75V252.07C86.888 252.586 87.6354 252.844 88.4531 252.844C89.5469 252.844 90.0938 252.521 90.0938 251.875C90.0938 251.693 90.0469 251.539 89.9531 251.414C89.8594 251.284 89.7318 251.169 89.5703 251.07C89.4141 250.971 89.2266 250.883 89.0078 250.805C88.7943 250.727 88.5547 250.638 88.2891 250.539C87.9609 250.409 87.6641 250.271 87.3984 250.125C87.138 249.979 86.9193 249.815 86.7422 249.633C86.5703 249.445 86.4401 249.234 86.3516 249C86.263 248.766 86.2188 248.492 86.2188 248.18C86.2188 247.794 86.3099 247.456 86.4922 247.164C86.6745 246.867 86.9193 246.62 87.2266 246.422C87.5339 246.219 87.8828 246.068 88.2734 245.969C88.6641 245.865 89.0677 245.812 89.4844 245.812C90.224 245.812 90.8854 245.924 91.4688 246.148V247.734C90.9062 247.349 90.2604 247.156 89.5312 247.156C89.3021 247.156 89.0938 247.18 88.9062 247.227C88.724 247.273 88.5677 247.339 88.4375 247.422C88.3073 247.505 88.2057 247.607 88.1328 247.727C88.0599 247.841 88.0234 247.969 88.0234 248.109C88.0234 248.281 88.0599 248.427 88.1328 248.547C88.2057 248.667 88.3125 248.773 88.4531 248.867C88.599 248.956 88.7708 249.039 88.9688 249.117C89.1719 249.19 89.4036 249.271 89.6641 249.359C90.0078 249.5 90.3151 249.643 90.5859 249.789C90.862 249.935 91.0964 250.102 91.2891 250.289C91.4818 250.471 91.6302 250.685 91.7344 250.93C91.8385 251.169 91.8906 251.456 91.8906 251.789C91.8906 252.195 91.7969 252.549 91.6094 252.852C91.4219 253.154 91.1719 253.404 90.8594 253.602C90.5469 253.799 90.1849 253.945 89.7734 254.039C89.3672 254.138 88.9375 254.188 88.4844 254.188C87.6094 254.188 86.8516 254.042 86.2109 253.75Z" fill="#1AD079"/>
<path d="M242.195 256.531C241.352 256.969 240.302 257.188 239.047 257.188C237.422 257.188 236.12 256.674 235.141 255.648C234.161 254.622 233.672 253.276 233.672 251.609C233.672 249.818 234.221 248.37 235.32 247.266C236.424 246.161 237.818 245.609 239.5 245.609C240.583 245.609 241.482 245.763 242.195 246.07V247.914C241.44 247.466 240.607 247.242 239.695 247.242C238.482 247.242 237.497 247.63 236.742 248.406C235.992 249.182 235.617 250.219 235.617 251.516C235.617 252.75 235.969 253.734 236.672 254.469C237.375 255.198 238.299 255.562 239.445 255.562C240.503 255.562 241.419 255.312 242.195 254.812V256.531ZM248.734 257.188C247.12 257.188 245.826 256.664 244.852 255.617C243.883 254.57 243.398 253.208 243.398 251.531C243.398 249.729 243.893 248.292 244.883 247.219C245.872 246.146 247.216 245.609 248.914 245.609C250.487 245.609 251.753 246.13 252.711 247.172C253.674 248.214 254.156 249.576 254.156 251.258C254.156 253.086 253.664 254.531 252.68 255.594C251.695 256.656 250.38 257.188 248.734 257.188ZM248.82 247.242C247.794 247.242 246.958 247.625 246.312 248.391C245.672 249.156 245.352 250.164 245.352 251.414C245.352 252.659 245.664 253.661 246.289 254.422C246.914 255.182 247.732 255.562 248.742 255.562C249.815 255.562 250.661 255.201 251.281 254.477C251.901 253.753 252.211 252.74 252.211 251.438C252.211 250.099 251.909 249.065 251.305 248.336C250.706 247.607 249.878 247.242 248.82 247.242ZM258.117 257H256.203V245.797H258.117V257ZM262.836 245.578L261.562 249.055H260.367L261.25 245.578H262.836ZM263.195 256.75V255.07C263.872 255.586 264.62 255.844 265.438 255.844C266.531 255.844 267.078 255.521 267.078 254.875C267.078 254.693 267.031 254.539 266.938 254.414C266.844 254.284 266.716 254.169 266.555 254.07C266.398 253.971 266.211 253.883 265.992 253.805C265.779 253.727 265.539 253.638 265.273 253.539C264.945 253.409 264.648 253.271 264.383 253.125C264.122 252.979 263.904 252.815 263.727 252.633C263.555 252.445 263.424 252.234 263.336 252C263.247 251.766 263.203 251.492 263.203 251.18C263.203 250.794 263.294 250.456 263.477 250.164C263.659 249.867 263.904 249.62 264.211 249.422C264.518 249.219 264.867 249.068 265.258 248.969C265.648 248.865 266.052 248.812 266.469 248.812C267.208 248.812 267.87 248.924 268.453 249.148V250.734C267.891 250.349 267.245 250.156 266.516 250.156C266.286 250.156 266.078 250.18 265.891 250.227C265.708 250.273 265.552 250.339 265.422 250.422C265.292 250.505 265.19 250.607 265.117 250.727C265.044 250.841 265.008 250.969 265.008 251.109C265.008 251.281 265.044 251.427 265.117 251.547C265.19 251.667 265.297 251.773 265.438 251.867C265.583 251.956 265.755 252.039 265.953 252.117C266.156 252.19 266.388 252.271 266.648 252.359C266.992 252.5 267.299 252.643 267.57 252.789C267.846 252.935 268.081 253.102 268.273 253.289C268.466 253.471 268.615 253.685 268.719 253.93C268.823 254.169 268.875 254.456 268.875 254.789C268.875 255.195 268.781 255.549 268.594 255.852C268.406 256.154 268.156 256.404 267.844 256.602C267.531 256.799 267.169 256.945 266.758 257.039C266.352 257.138 265.922 257.188 265.469 257.188C264.594 257.188 263.836 257.042 263.195 256.75Z" fill="#1AD079"/>
<path d="M42.4297 315.375H38.2422V318.742H42.1016V320.312H38.2422V325H36.3828V313.797H42.4297V315.375ZM49.8203 325H48.0625V323.75H48.0312C47.4792 324.708 46.6693 325.188 45.6016 325.188C44.8151 325.188 44.1979 324.974 43.75 324.547C43.3073 324.12 43.0859 323.555 43.0859 322.852C43.0859 321.341 43.9557 320.461 45.6953 320.211L48.0703 319.875C48.0703 318.734 47.5286 318.164 46.4453 318.164C45.4922 318.164 44.6328 318.492 43.8672 319.148V317.562C44.7109 317.062 45.6849 316.812 46.7891 316.812C48.8099 316.812 49.8203 317.807 49.8203 319.797V325ZM48.0703 321.07L46.3906 321.305C45.8698 321.372 45.4766 321.5 45.2109 321.688C44.9505 321.87 44.8203 322.193 44.8203 322.656C44.8203 322.995 44.9401 323.273 45.1797 323.492C45.4245 323.706 45.75 323.812 46.1562 323.812C46.7083 323.812 47.1641 323.62 47.5234 323.234C47.888 322.844 48.0703 322.354 48.0703 321.766V321.07ZM64 325H62.1875V320.641C62.1875 319.802 62.0677 319.195 61.8281 318.82C61.5938 318.445 61.1953 318.258 60.6328 318.258C60.1589 318.258 59.7552 318.495 59.4219 318.969C59.0938 319.443 58.9297 320.01 58.9297 320.672V325H57.1094V320.492C57.1094 319.003 56.5833 318.258 55.5312 318.258C55.0417 318.258 54.638 318.482 54.3203 318.93C54.0078 319.378 53.8516 319.958 53.8516 320.672V325H52.0391V317H53.8516V318.266H53.8828C54.4609 317.297 55.3021 316.812 56.4062 316.812C56.9583 316.812 57.4401 316.966 57.8516 317.273C58.2682 317.576 58.5521 317.974 58.7031 318.469C59.2969 317.365 60.1823 316.812 61.3594 316.812C63.1198 316.812 64 317.898 64 320.07V325ZM67.125 315.32C66.8281 315.32 66.5729 315.224 66.3594 315.031C66.151 314.839 66.0469 314.594 66.0469 314.297C66.0469 314 66.151 313.753 66.3594 313.555C66.5729 313.357 66.8281 313.258 67.125 313.258C67.4323 313.258 67.6927 313.357 67.9062 313.555C68.1198 313.753 68.2266 314 68.2266 314.297C68.2266 314.578 68.1198 314.82 67.9062 315.023C67.6927 315.221 67.4323 315.32 67.125 315.32ZM68.0234 325H66.2109V317H68.0234V325ZM72.2188 325H70.3984V313.156H72.2188V325ZM81.5156 317L77.9062 326.281C77.1562 327.938 76.1042 328.766 74.75 328.766C74.3698 328.766 74.0521 328.732 73.7969 328.664V327.156C74.0833 327.25 74.3438 327.297 74.5781 327.297C75.2552 327.297 75.7604 326.964 76.0938 326.297L76.6328 324.984L73.4531 317H75.4609L77.3672 322.812C77.388 322.885 77.4349 323.078 77.5078 323.391H77.5469C77.5729 323.271 77.6198 323.083 77.6875 322.828L79.6875 317H81.5156ZM95.0078 325.008L93.9844 323.922C93.7604 324.12 93.5104 324.299 93.2344 324.461C92.9635 324.617 92.6745 324.75 92.3672 324.859C92.0651 324.969 91.75 325.052 91.4219 325.109C91.0938 325.167 90.763 325.195 90.4297 325.195C89.8672 325.195 89.3594 325.122 88.9062 324.977C88.4531 324.831 88.0651 324.625 87.7422 324.359C87.4245 324.089 87.1771 323.766 87 323.391C86.8281 323.016 86.7422 322.599 86.7422 322.141C86.7422 320.854 87.5964 319.771 89.3047 318.891C88.5182 317.917 88.125 317.052 88.125 316.297C88.125 315.906 88.2005 315.547 88.3516 315.219C88.5078 314.891 88.724 314.609 89 314.375C89.276 314.135 89.6042 313.948 89.9844 313.812C90.3698 313.677 90.7891 313.609 91.2422 313.609C91.6745 313.609 92.0651 313.669 92.4141 313.789C92.7682 313.909 93.0703 314.076 93.3203 314.289C93.5703 314.503 93.763 314.758 93.8984 315.055C94.0339 315.346 94.1016 315.664 94.1016 316.008C94.1016 316.346 94.0573 316.654 93.9688 316.93C93.8854 317.201 93.7474 317.456 93.5547 317.695C93.3672 317.935 93.1172 318.164 92.8047 318.383C92.4974 318.602 92.1198 318.82 91.6719 319.039C92.0833 319.482 92.4974 319.922 92.9141 320.359C93.3359 320.797 93.763 321.237 94.1953 321.68C94.3047 321.513 94.4036 321.326 94.4922 321.117C94.5859 320.909 94.6641 320.69 94.7266 320.461C94.7943 320.232 94.8464 319.995 94.8828 319.75C94.9193 319.505 94.9375 319.266 94.9375 319.031H96.5234C96.5234 320.464 96.0703 321.716 95.1641 322.789C95.3984 323.039 95.6927 323.346 96.0469 323.711C96.4062 324.076 96.8281 324.508 97.3125 325.008H95.0078ZM92.4688 316.148C92.4688 315.977 92.4349 315.815 92.3672 315.664C92.3047 315.513 92.2188 315.383 92.1094 315.273C92 315.159 91.8724 315.07 91.7266 315.008C91.5807 314.94 91.4245 314.906 91.2578 314.906C91.0391 314.906 90.8385 314.94 90.6562 315.008C90.4792 315.07 90.3255 315.164 90.1953 315.289C90.0703 315.409 89.9714 315.552 89.8984 315.719C89.8307 315.885 89.7969 316.07 89.7969 316.273C89.7969 316.753 90.138 317.372 90.8203 318.133C91.9193 317.57 92.4688 316.909 92.4688 316.148ZM93.0391 322.906C92.4297 322.276 91.4766 321.26 90.1797 319.859C89.6068 320.156 89.1927 320.474 88.9375 320.812C88.6875 321.151 88.5625 321.547 88.5625 322C88.5625 322.276 88.612 322.526 88.7109 322.75C88.8151 322.969 88.9557 323.156 89.1328 323.312C89.3099 323.469 89.5182 323.589 89.7578 323.672C90.0026 323.755 90.2656 323.797 90.5469 323.797C91.526 323.797 92.3568 323.5 93.0391 322.906ZM109.242 315.375H105.055V318.742H108.914V320.312H105.055V325H103.195V313.797H109.242V315.375ZM115.68 318.727C115.461 318.555 115.146 318.469 114.734 318.469C114.198 318.469 113.75 318.711 113.391 319.195C113.031 319.68 112.852 320.339 112.852 321.172V325H111.039V317H112.852V318.648H112.883C113.06 318.086 113.331 317.648 113.695 317.336C114.065 317.018 114.477 316.859 114.93 316.859C115.258 316.859 115.508 316.909 115.68 317.008V318.727ZM117.875 315.32C117.578 315.32 117.323 315.224 117.109 315.031C116.901 314.839 116.797 314.594 116.797 314.297C116.797 314 116.901 313.753 117.109 313.555C117.323 313.357 117.578 313.258 117.875 313.258C118.182 313.258 118.443 313.357 118.656 313.555C118.87 313.753 118.977 314 118.977 314.297C118.977 314.578 118.87 314.82 118.656 315.023C118.443 315.221 118.182 315.32 117.875 315.32ZM118.773 325H116.961V317H118.773V325ZM127.922 321.492H122.469C122.49 322.232 122.716 322.802 123.148 323.203C123.586 323.604 124.185 323.805 124.945 323.805C125.799 323.805 126.583 323.549 127.297 323.039V324.5C126.568 324.958 125.604 325.188 124.406 325.188C123.229 325.188 122.305 324.826 121.633 324.102C120.966 323.372 120.633 322.349 120.633 321.031C120.633 319.786 121 318.773 121.734 317.992C122.474 317.206 123.391 316.812 124.484 316.812C125.578 316.812 126.424 317.164 127.023 317.867C127.622 318.57 127.922 319.547 127.922 320.797V321.492ZM126.172 320.211C126.167 319.56 126.013 319.055 125.711 318.695C125.409 318.331 124.992 318.148 124.461 318.148C123.94 318.148 123.497 318.339 123.133 318.719C122.773 319.099 122.552 319.596 122.469 320.211H126.172ZM136.773 325H134.961V320.492C134.961 318.997 134.432 318.25 133.375 318.25C132.823 318.25 132.367 318.458 132.008 318.875C131.648 319.286 131.469 319.807 131.469 320.438V325H129.648V317H131.469V318.328H131.5C132.099 317.318 132.964 316.812 134.094 316.812C134.964 316.812 135.628 317.096 136.086 317.664C136.544 318.227 136.773 319.042 136.773 320.109V325ZM146.266 325H144.453V323.641H144.422C143.839 324.672 142.94 325.188 141.727 325.188C140.742 325.188 139.953 324.831 139.359 324.117C138.771 323.398 138.477 322.422 138.477 321.188C138.477 319.865 138.802 318.805 139.453 318.008C140.109 317.211 140.982 316.812 142.07 316.812C143.148 316.812 143.932 317.245 144.422 318.109H144.453V313.156H146.266V325ZM144.477 321.344V320.297C144.477 319.729 144.292 319.247 143.922 318.852C143.552 318.456 143.081 318.258 142.508 318.258C141.831 318.258 141.297 318.51 140.906 319.016C140.521 319.521 140.328 320.221 140.328 321.117C140.328 321.93 140.513 322.573 140.883 323.047C141.258 323.516 141.76 323.75 142.391 323.75C143.01 323.75 143.513 323.523 143.898 323.07C144.284 322.612 144.477 322.036 144.477 321.344ZM148.133 324.75V323.07C148.81 323.586 149.557 323.844 150.375 323.844C151.469 323.844 152.016 323.521 152.016 322.875C152.016 322.693 151.969 322.539 151.875 322.414C151.781 322.284 151.654 322.169 151.492 322.07C151.336 321.971 151.148 321.883 150.93 321.805C150.716 321.727 150.477 321.638 150.211 321.539C149.883 321.409 149.586 321.271 149.32 321.125C149.06 320.979 148.841 320.815 148.664 320.633C148.492 320.445 148.362 320.234 148.273 320C148.185 319.766 148.141 319.492 148.141 319.18C148.141 318.794 148.232 318.456 148.414 318.164C148.596 317.867 148.841 317.62 149.148 317.422C149.456 317.219 149.805 317.068 150.195 316.969C150.586 316.865 150.99 316.812 151.406 316.812C152.146 316.812 152.807 316.924 153.391 317.148V318.734C152.828 318.349 152.182 318.156 151.453 318.156C151.224 318.156 151.016 318.18 150.828 318.227C150.646 318.273 150.49 318.339 150.359 318.422C150.229 318.505 150.128 318.607 150.055 318.727C149.982 318.841 149.945 318.969 149.945 319.109C149.945 319.281 149.982 319.427 150.055 319.547C150.128 319.667 150.234 319.773 150.375 319.867C150.521 319.956 150.693 320.039 150.891 320.117C151.094 320.19 151.326 320.271 151.586 320.359C151.93 320.5 152.237 320.643 152.508 320.789C152.784 320.935 153.018 321.102 153.211 321.289C153.404 321.471 153.552 321.685 153.656 321.93C153.76 322.169 153.812 322.456 153.812 322.789C153.812 323.195 153.719 323.549 153.531 323.852C153.344 324.154 153.094 324.404 152.781 324.602C152.469 324.799 152.107 324.945 151.695 325.039C151.289 325.138 150.859 325.188 150.406 325.188C149.531 325.188 148.773 325.042 148.133 324.75Z" fill="#1AD079"/>
<path d="M67.5312 48H65.5938L66.6016 43.2109H61.4375L60.4297 48H58.4766L60.8516 36.7969H62.8047L61.7969 41.4922H66.9688L67.9766 36.7969H69.9141L67.5312 48ZM74.3594 37.2891C74.3594 37.6016 74.2474 37.862 74.0234 38.0703C73.7995 38.2734 73.526 38.375 73.2031 38.375C72.8906 38.375 72.625 38.2812 72.4062 38.0938C72.1927 37.9062 72.0859 37.6589 72.0859 37.3516C72.0859 37.0339 72.2005 36.776 72.4297 36.5781C72.6589 36.3802 72.9349 36.2812 73.2578 36.2812C73.5599 36.2812 73.8177 36.3776 74.0312 36.5703C74.25 36.7578 74.3594 36.9974 74.3594 37.2891ZM72.2344 48.1328C71.6615 48.1328 71.224 47.9896 70.9219 47.7031C70.625 47.4115 70.4766 46.9974 70.4766 46.4609C70.4766 46.1901 70.5052 45.9245 70.5625 45.6641L71.7266 40H73.625L72.5625 45.0391C72.4531 45.5599 72.3984 45.8958 72.3984 46.0469C72.3984 46.4427 72.625 46.6406 73.0781 46.6406C73.3438 46.6406 73.5807 46.599 73.7891 46.5156L73.4922 47.9531C73.0443 48.0729 72.625 48.1328 72.2344 48.1328ZM76.6016 51.7578C75.7422 51.7578 74.9167 51.5599 74.125 51.1641L74.4609 49.5703C75.2057 50.0547 75.9661 50.2969 76.7422 50.2969C77.5495 50.2969 78.1901 50.0755 78.6641 49.6328C79.138 49.1901 79.4766 48.4792 79.6797 47.5L79.8828 46.5234H79.8516C79.4609 47.1328 79.0651 47.5651 78.6641 47.8203C78.2682 48.0703 77.8281 48.1953 77.3438 48.1953C76.5938 48.1953 76.0026 47.9349 75.5703 47.4141C75.1432 46.888 74.9297 46.1458 74.9297 45.1875C74.9297 44.1979 75.1458 43.2839 75.5781 42.4453C76.0156 41.6016 76.612 40.9505 77.3672 40.4922C78.1224 40.0339 78.9792 39.8047 79.9375 39.8047C80.7865 39.8047 81.8411 39.9245 83.1016 40.1641L81.6094 47.2344C81.3698 48.3646 81.0443 49.2422 80.6328 49.8672C80.2214 50.4922 79.6849 50.9635 79.0234 51.2812C78.3672 51.599 77.5599 51.7578 76.6016 51.7578ZM80.9766 41.3359C80.6536 41.2578 80.2578 41.2188 79.7891 41.2188C79.2474 41.2188 78.7474 41.3906 78.2891 41.7344C77.8307 42.0781 77.4714 42.5443 77.2109 43.1328C76.9557 43.7214 76.8281 44.362 76.8281 45.0547C76.8281 45.5911 76.9323 46 77.1406 46.2812C77.349 46.5625 77.6328 46.7031 77.9922 46.7031C78.3568 46.7031 78.7031 46.5781 79.0312 46.3281C79.3594 46.0781 79.6589 45.6901 79.9297 45.1641C80.2005 44.638 80.3958 44.0859 80.5156 43.5078L80.9766 41.3359ZM92.0078 41.9609C92.0078 42.2422 91.9297 42.7552 91.7734 43.5L90.8203 48H88.9297L89.8984 43.375C90.0026 42.8177 90.0547 42.4766 90.0547 42.3516C90.0547 41.6484 89.737 41.2969 89.1016 41.2969C88.763 41.2969 88.4036 41.4323 88.0234 41.7031C87.6484 41.9688 87.3151 42.3203 87.0234 42.7578C86.737 43.1953 86.5469 43.6406 86.4531 44.0938L85.6172 48H83.7188L86.2422 36.1562H88.1328L86.9453 41.7109H86.9766C87.4089 41.1068 87.888 40.638 88.4141 40.3047C88.9401 39.9714 89.4661 39.8047 89.9922 39.8047C90.6589 39.8047 91.1615 39.9948 91.5 40.375C91.8385 40.75 92.0078 41.2786 92.0078 41.9609ZM97.9688 44.3203H93.6953L93.9922 42.9531H98.2656L97.9688 44.3203ZM108.891 39.8672C108.891 40.6797 108.701 41.3958 108.32 42.0156C107.94 42.6302 107.388 43.1068 106.664 43.4453C105.94 43.7839 105.076 43.9531 104.07 43.9531H102.43L101.578 48H99.6328L102.008 36.7969H105.383C106.477 36.7969 107.333 37.0677 107.953 37.6094C108.578 38.151 108.891 38.9036 108.891 39.8672ZM106.867 40.0078C106.867 39.5078 106.698 39.1094 106.359 38.8125C106.021 38.5104 105.529 38.3594 104.883 38.3594H103.625L102.766 42.4062H104.133C104.987 42.4062 105.656 42.1953 106.141 41.7734C106.625 41.3516 106.867 40.763 106.867 40.0078ZM115.031 41.8203C114.714 41.6536 114.406 41.5703 114.109 41.5703C113.568 41.5703 113.073 41.8438 112.625 42.3906C112.182 42.9375 111.865 43.6667 111.672 44.5781L110.945 48H109.055L110.164 42.7969C110.43 41.5 110.586 40.5677 110.633 40H112.492C112.44 40.5052 112.367 41.0677 112.273 41.6875H112.305C112.633 41.0938 112.977 40.6328 113.336 40.3047C113.701 39.9714 114.125 39.8047 114.609 39.8047C114.807 39.8047 115.07 39.8438 115.398 39.9219L115.031 41.8203ZM123.18 43.0703C123.18 44.0391 122.984 44.9245 122.594 45.7266C122.208 46.5234 121.672 47.1354 120.984 47.5625C120.302 47.9844 119.513 48.1953 118.617 48.1953C117.612 48.1953 116.82 47.9062 116.242 47.3281C115.669 46.75 115.383 45.9505 115.383 44.9297C115.383 43.9609 115.576 43.0807 115.961 42.2891C116.352 41.4974 116.888 40.8854 117.57 40.4531C118.253 40.0208 119.044 39.8047 119.945 39.8047C120.935 39.8047 121.721 40.0964 122.305 40.6797C122.888 41.2578 123.18 42.0547 123.18 43.0703ZM121.273 43.1172C121.273 42.5599 121.143 42.1172 120.883 41.7891C120.628 41.4609 120.271 41.2969 119.812 41.2969C119.339 41.2969 118.909 41.4609 118.523 41.7891C118.138 42.112 117.833 42.5521 117.609 43.1094C117.391 43.6667 117.281 44.263 117.281 44.8984C117.281 45.4609 117.411 45.9036 117.672 46.2266C117.938 46.5443 118.297 46.7031 118.75 46.7031C119.234 46.7031 119.669 46.5417 120.055 46.2188C120.445 45.8906 120.745 45.4479 120.953 44.8906C121.167 44.3333 121.273 43.7422 121.273 43.1172ZM132.266 42.7812C132.266 43.7552 132.052 44.6693 131.625 45.5234C131.198 46.3776 130.612 47.0365 129.867 47.5C129.128 47.9635 128.297 48.1953 127.375 48.1953C126.844 48.1953 126.339 48.1198 125.859 47.9688L125.07 51.6953H123.172L125.109 42.5547C125.172 42.2839 125.237 41.875 125.305 41.3281C125.378 40.7812 125.422 40.3385 125.438 40H127.305C127.305 40.1354 127.284 40.3776 127.242 40.7266C127.201 41.0703 127.164 41.3359 127.133 41.5234H127.164C127.878 40.3776 128.784 39.8047 129.883 39.8047C130.638 39.8047 131.224 40.0703 131.641 40.6016C132.057 41.1328 132.266 41.8594 132.266 42.7812ZM130.375 42.9531C130.375 42.401 130.268 41.987 130.055 41.7109C129.841 41.4349 129.536 41.2969 129.141 41.2969C128.776 41.2969 128.424 41.4297 128.086 41.6953C127.747 41.9609 127.44 42.3568 127.164 42.8828C126.893 43.4089 126.701 43.9453 126.586 44.4922L126.133 46.5703C126.242 46.612 126.432 46.6589 126.703 46.7109C126.974 46.7578 127.214 46.7812 127.422 46.7812C127.979 46.7812 128.482 46.6068 128.93 46.2578C129.383 45.9089 129.737 45.4375 129.992 44.8438C130.247 44.2448 130.375 43.6146 130.375 42.9531ZM140.656 41.9688C140.656 42.9323 140.208 43.6432 139.312 44.1016C138.417 44.5547 137.057 44.7917 135.234 44.8125L135.219 44.8984V45.0547C135.219 45.5964 135.38 46.0182 135.703 46.3203C136.026 46.6172 136.477 46.7656 137.055 46.7656C137.451 46.7656 137.872 46.6953 138.32 46.5547C138.773 46.4089 139.188 46.224 139.562 46L139.25 47.5547C138.464 47.9818 137.596 48.1953 136.648 48.1953C135.612 48.1953 134.802 47.9062 134.219 47.3281C133.641 46.75 133.352 45.9349 133.352 44.8828C133.352 43.9766 133.549 43.1302 133.945 42.3438C134.341 41.5521 134.893 40.9323 135.602 40.4844C136.31 40.0312 137.086 39.8047 137.93 39.8047C138.768 39.8047 139.432 40.0026 139.922 40.3984C140.411 40.7943 140.656 41.3177 140.656 41.9688ZM138.828 42.0156C138.828 41.7552 138.732 41.5495 138.539 41.3984C138.352 41.2422 138.091 41.1641 137.758 41.1641C137.206 41.1641 136.706 41.3906 136.258 41.8438C135.81 42.2969 135.516 42.8542 135.375 43.5156C137.677 43.5156 138.828 43.0156 138.828 42.0156ZM149.453 41.9531C149.453 42.2188 149.372 42.7344 149.211 43.5L148.258 48H146.367L147.336 43.375C147.44 42.8177 147.492 42.4766 147.492 42.3516C147.492 42.0391 147.409 41.7865 147.242 41.5938C147.081 41.3958 146.849 41.2969 146.547 41.2969C146.214 41.2969 145.857 41.4297 145.477 41.6953C145.102 41.9557 144.768 42.3073 144.477 42.75C144.185 43.1927 143.992 43.6328 143.898 44.0703L143.062 48H141.156L142.367 42.4062C142.555 41.5104 142.693 40.7083 142.781 40H144.625C144.583 40.4427 144.503 41.0156 144.383 41.7188H144.414C144.831 41.1094 145.305 40.638 145.836 40.3047C146.372 39.9714 146.904 39.8047 147.43 39.8047C148.076 39.8047 148.573 39.9896 148.922 40.3594C149.276 40.7292 149.453 41.2604 149.453 41.9531ZM156.18 41.7031C155.951 41.5677 155.677 41.4505 155.359 41.3516C155.047 41.2526 154.734 41.2031 154.422 41.2031C153.984 41.2031 153.656 41.2969 153.438 41.4844C153.224 41.6667 153.117 41.9036 153.117 42.1953C153.117 42.4557 153.206 42.6719 153.383 42.8438C153.56 43.0156 153.815 43.1927 154.148 43.375C154.826 43.7552 155.286 44.1172 155.531 44.4609C155.781 44.8047 155.906 45.2083 155.906 45.6719C155.906 46.1771 155.773 46.6172 155.508 46.9922C155.247 47.3672 154.865 47.6615 154.359 47.875C153.854 48.0885 153.237 48.1953 152.508 48.1953C152.112 48.1953 151.693 48.151 151.25 48.0625C150.807 47.974 150.469 47.8672 150.234 47.7422L150.547 46.1953C150.833 46.3672 151.172 46.513 151.562 46.6328C151.958 46.7526 152.339 46.8125 152.703 46.8125C153.161 46.8125 153.503 46.7266 153.727 46.5547C153.951 46.3828 154.062 46.1458 154.062 45.8438C154.062 45.6094 153.984 45.4062 153.828 45.2344C153.677 45.0625 153.38 44.8568 152.938 44.6172C152.349 44.2995 151.919 43.9635 151.648 43.6094C151.383 43.2552 151.25 42.8385 151.25 42.3594C151.25 41.8698 151.375 41.4323 151.625 41.0469C151.88 40.6562 152.245 40.3516 152.719 40.1328C153.198 39.9141 153.766 39.8047 154.422 39.8047C154.812 39.8047 155.193 39.8411 155.562 39.9141C155.938 39.9818 156.253 40.0677 156.508 40.1719L156.18 41.7031ZM161.406 37.2891C161.406 37.6016 161.294 37.862 161.07 38.0703C160.846 38.2734 160.573 38.375 160.25 38.375C159.938 38.375 159.672 38.2812 159.453 38.0938C159.24 37.9062 159.133 37.6589 159.133 37.3516C159.133 37.0339 159.247 36.776 159.477 36.5781C159.706 36.3802 159.982 36.2812 160.305 36.2812C160.607 36.2812 160.865 36.3776 161.078 36.5703C161.297 36.7578 161.406 36.9974 161.406 37.2891ZM159.281 48.1328C158.708 48.1328 158.271 47.9896 157.969 47.7031C157.672 47.4115 157.523 46.9974 157.523 46.4609C157.523 46.1901 157.552 45.9245 157.609 45.6641L158.773 40H160.672L159.609 45.0391C159.5 45.5599 159.445 45.8958 159.445 46.0469C159.445 46.4427 159.672 46.6406 160.125 46.6406C160.391 46.6406 160.628 46.599 160.836 46.5156L160.539 47.9531C160.091 48.0729 159.672 48.1328 159.281 48.1328ZM167.164 41.4531H165.219L164.453 45.0703C164.359 45.5234 164.312 45.8281 164.312 45.9844C164.312 46.224 164.367 46.3984 164.477 46.5078C164.586 46.612 164.766 46.6641 165.016 46.6641C165.255 46.6641 165.62 46.5703 166.109 46.3828L165.797 47.8594C165.276 48.0625 164.76 48.1641 164.25 48.1641C163.016 48.1641 162.398 47.5625 162.398 46.3594C162.398 46.0573 162.453 45.6615 162.562 45.1719L163.344 41.4531H162.062L162.406 40H163.648L164.062 38.0859L166.047 37.5625L165.539 40H167.5L167.164 41.4531ZM166.82 51.7578C166.456 51.7578 166.109 51.7031 165.781 51.5938L166.109 50.0781C166.312 50.2031 166.573 50.2656 166.891 50.2656C167.547 50.2656 168.104 49.9141 168.562 49.2109L169.367 47.9609L167.859 40H169.82L170.57 45.5078L170.602 46.0156L170.586 46.3438H170.625C170.755 46.0104 170.88 45.7344 171 45.5156L173.992 40H176L170.617 49.0156C170.023 50.0104 169.432 50.7161 168.844 51.1328C168.26 51.5495 167.586 51.7578 166.82 51.7578ZM66.0391 59.9375C65.7109 59.7135 65.3151 59.5339 64.8516 59.3984C64.3932 59.263 63.9583 59.1953 63.5469 59.1953C63.1458 59.1953 62.8047 59.2656 62.5234 59.4062C62.2422 59.5417 62.026 59.724 61.875 59.9531C61.7292 60.1771 61.6562 60.4245 61.6562 60.6953C61.6562 61.0703 61.7656 61.4062 61.9844 61.7031C62.2031 61.9948 62.6224 62.3464 63.2422 62.7578C64.0443 63.2943 64.599 63.8021 64.9062 64.2812C65.2188 64.7552 65.375 65.2865 65.375 65.875C65.375 66.526 65.2083 67.1146 64.875 67.6406C64.5469 68.1615 64.0833 68.5521 63.4844 68.8125C62.8854 69.0677 62.1771 69.1953 61.3594 69.1953C60.8281 69.1953 60.2812 69.1276 59.7188 68.9922C59.1562 68.8516 58.6693 68.6693 58.2578 68.4453L58.5859 66.6562C58.9818 66.9479 59.4323 67.1797 59.9375 67.3516C60.4427 67.5234 60.9349 67.6094 61.4141 67.6094C62.0339 67.6094 62.513 67.4766 62.8516 67.2109C63.1901 66.9401 63.3594 66.5599 63.3594 66.0703C63.3594 65.6953 63.2396 65.3672 63 65.0859C62.7604 64.8047 62.3073 64.4531 61.6406 64.0312C60.9323 63.5833 60.4167 63.1094 60.0938 62.6094C59.776 62.1042 59.6172 61.5469 59.6172 60.9375C59.6172 60.3073 59.7786 59.737 60.1016 59.2266C60.4245 58.7161 60.8828 58.3203 61.4766 58.0391C62.0703 57.7526 62.7734 57.6094 63.5859 57.6094C64.4974 57.6094 65.4297 57.7969 66.3828 58.1719L66.0391 59.9375ZM74.125 62.9688C74.125 63.9323 73.6771 64.6432 72.7812 65.1016C71.8854 65.5547 70.526 65.7917 68.7031 65.8125L68.6875 65.8984V66.0547C68.6875 66.5964 68.849 67.0182 69.1719 67.3203C69.4948 67.6172 69.9453 67.7656 70.5234 67.7656C70.9193 67.7656 71.3411 67.6953 71.7891 67.5547C72.2422 67.4089 72.6562 67.224 73.0312 67L72.7188 68.5547C71.9323 68.9818 71.0651 69.1953 70.1172 69.1953C69.0807 69.1953 68.2708 68.9062 67.6875 68.3281C67.1094 67.75 66.8203 66.9349 66.8203 65.8828C66.8203 64.9766 67.0182 64.1302 67.4141 63.3438C67.8099 62.5521 68.362 61.9323 69.0703 61.4844C69.7786 61.0312 70.5547 60.8047 71.3984 60.8047C72.237 60.8047 72.901 61.0026 73.3906 61.3984C73.8802 61.7943 74.125 62.3177 74.125 62.9688ZM72.2969 63.0156C72.2969 62.7552 72.2005 62.5495 72.0078 62.3984C71.8203 62.2422 71.5599 62.1641 71.2266 62.1641C70.6745 62.1641 70.1745 62.3906 69.7266 62.8438C69.2786 63.2969 68.9844 63.8542 68.8438 64.5156C71.1458 64.5156 72.2969 64.0156 72.2969 63.0156ZM76.7969 69.1328C76.2188 69.1328 75.7786 68.9896 75.4766 68.7031C75.1745 68.4167 75.0234 68.0104 75.0234 67.4844C75.0234 67.1354 75.1224 66.5078 75.3203 65.6016C75.5182 64.6901 76.1172 61.875 77.1172 57.1562H79.0156L77.125 66.0391C77.0156 66.5599 76.9609 66.8958 76.9609 67.0469C76.9609 67.4427 77.1875 67.6406 77.6406 67.6406C77.9062 67.6406 78.1432 67.599 78.3516 67.5156L78.0547 68.9531C77.6536 69.0729 77.2344 69.1328 76.7969 69.1328ZM81.4062 69.1328C80.8281 69.1328 80.388 68.9896 80.0859 68.7031C79.7839 68.4167 79.6328 68.0104 79.6328 67.4844C79.6328 67.1354 79.7318 66.5078 79.9297 65.6016C80.1276 64.6901 80.7266 61.875 81.7266 57.1562H83.625L81.7344 66.0391C81.625 66.5599 81.5703 66.8958 81.5703 67.0469C81.5703 67.4427 81.7969 67.6406 82.25 67.6406C82.5156 67.6406 82.7526 67.599 82.9609 67.5156L82.6641 68.9531C82.263 69.0729 81.8438 69.1328 81.4062 69.1328ZM91.4062 62.9688C91.4062 63.9323 90.9583 64.6432 90.0625 65.1016C89.1667 65.5547 87.8073 65.7917 85.9844 65.8125L85.9688 65.8984V66.0547C85.9688 66.5964 86.1302 67.0182 86.4531 67.3203C86.776 67.6172 87.2266 67.7656 87.8047 67.7656C88.2005 67.7656 88.6224 67.6953 89.0703 67.5547C89.5234 67.4089 89.9375 67.224 90.3125 67L90 68.5547C89.2135 68.9818 88.3464 69.1953 87.3984 69.1953C86.362 69.1953 85.5521 68.9062 84.9688 68.3281C84.3906 67.75 84.1016 66.9349 84.1016 65.8828C84.1016 64.9766 84.2995 64.1302 84.6953 63.3438C85.0911 62.5521 85.6432 61.9323 86.3516 61.4844C87.0599 61.0312 87.8359 60.8047 88.6797 60.8047C89.5182 60.8047 90.1823 61.0026 90.6719 61.3984C91.1615 61.7943 91.4062 62.3177 91.4062 62.9688ZM89.5781 63.0156C89.5781 62.7552 89.4818 62.5495 89.2891 62.3984C89.1016 62.2422 88.8411 62.1641 88.5078 62.1641C87.9557 62.1641 87.4557 62.3906 87.0078 62.8438C86.5599 63.2969 86.2656 63.8542 86.125 64.5156C88.4271 64.5156 89.5781 64.0156 89.5781 63.0156ZM97.8594 62.8203C97.5417 62.6536 97.2344 62.5703 96.9375 62.5703C96.3958 62.5703 95.901 62.8438 95.4531 63.3906C95.0104 63.9375 94.6927 64.6667 94.5 65.5781L93.7734 69H91.8828L92.9922 63.7969C93.2578 62.5 93.4141 61.5677 93.4609 61H95.3203C95.2682 61.5052 95.1953 62.0677 95.1016 62.6875H95.1328C95.4609 62.0938 95.8047 61.6328 96.1641 61.3047C96.5286 60.9714 96.9531 60.8047 97.4375 60.8047C97.6354 60.8047 97.8984 60.8438 98.2266 60.9219L97.8594 62.8203ZM103.695 62.7031C103.466 62.5677 103.193 62.4505 102.875 62.3516C102.562 62.2526 102.25 62.2031 101.938 62.2031C101.5 62.2031 101.172 62.2969 100.953 62.4844C100.74 62.6667 100.633 62.9036 100.633 63.1953C100.633 63.4557 100.721 63.6719 100.898 63.8438C101.076 64.0156 101.331 64.1927 101.664 64.375C102.341 64.7552 102.802 65.1172 103.047 65.4609C103.297 65.8047 103.422 66.2083 103.422 66.6719C103.422 67.1771 103.289 67.6172 103.023 67.9922C102.763 68.3672 102.38 68.6615 101.875 68.875C101.37 69.0885 100.753 69.1953 100.023 69.1953C99.6276 69.1953 99.2083 69.151 98.7656 69.0625C98.3229 68.974 97.9844 68.8672 97.75 68.7422L98.0625 67.1953C98.349 67.3672 98.6875 67.513 99.0781 67.6328C99.474 67.7526 99.8542 67.8125 100.219 67.8125C100.677 67.8125 101.018 67.7266 101.242 67.5547C101.466 67.3828 101.578 67.1458 101.578 66.8438C101.578 66.6094 101.5 66.4062 101.344 66.2344C101.193 66.0625 100.896 65.8568 100.453 65.6172C99.8646 65.2995 99.4349 64.9635 99.1641 64.6094C98.8984 64.2552 98.7656 63.8385 98.7656 63.3594C98.7656 62.8698 98.8906 62.4323 99.1406 62.0469C99.3958 61.6562 99.7604 61.3516 100.234 61.1328C100.714 60.9141 101.281 60.8047 101.938 60.8047C102.328 60.8047 102.708 60.8411 103.078 60.9141C103.453 60.9818 103.768 61.0677 104.023 61.1719L103.695 62.7031Z" fill="white"/>
</svg>
