<svg width="60" height="60" viewBox="0 0 60 60" fill="none" xmlns="http://www.w3.org/2000/svg">
<circle cx="30" cy="30" r="29" fill="#E4F9EF" stroke="#1AD079" stroke-width="2"/>
<path d="M21.2344 32.9375V37H19.3828V25.7969H22.7812C24.0677 25.7969 25.0651 26.0964 25.7734 26.6953C26.4818 27.2943 26.8359 28.138 26.8359 29.2266C26.8359 30.3151 26.4661 31.2057 25.7266 31.8984C24.987 32.5911 23.987 32.9375 22.7266 32.9375H21.2344ZM21.2344 27.3281V31.4219H22.4375C23.2344 31.4219 23.8411 31.237 24.2578 30.8672C24.6745 30.4974 24.8828 29.9766 24.8828 29.3047C24.8828 27.987 24.1172 27.3281 22.5859 27.3281H21.2344ZM40.7734 37H38.9297V29.75C38.9297 29.1562 38.9661 28.4297 39.0391 27.5703H39.0078C38.8932 28.0599 38.7917 28.4115 38.7031 28.625L35.3594 37H34.0781L30.7266 28.6875C30.6328 28.4427 30.5339 28.0703 30.4297 27.5703H30.3984C30.4401 28.0182 30.4609 28.75 30.4609 29.7656V37H28.7422V25.7969H31.3594L34.3047 33.2578C34.5286 33.8307 34.6745 34.2578 34.7422 34.5391H34.7812C34.974 33.9505 35.1302 33.513 35.25 33.2266L38.25 25.7969H40.7734V37Z" fill="#1AD079"/>
</svg>
