<svg width="60" height="60" viewBox="0 0 60 60" fill="none" xmlns="http://www.w3.org/2000/svg">
<circle cx="30" cy="30" r="29" fill="#E4F9EF" stroke="#1AD079" stroke-width="2"/>
<path d="M30.0391 37H27.8672L26.0781 34C25.9167 33.724 25.7578 33.4896 25.6016 33.2969C25.4505 33.099 25.2943 32.9375 25.1328 32.8125C24.9766 32.6875 24.8047 32.5964 24.6172 32.5391C24.4297 32.4818 24.2188 32.4531 23.9844 32.4531H23.2344V37H21.3828V25.7969H25.0703C25.5964 25.7969 26.0807 25.8594 26.5234 25.9844C26.9661 26.1094 27.3516 26.2995 27.6797 26.5547C28.0078 26.8047 28.263 27.1198 28.4453 27.5C28.6328 27.875 28.7266 28.3151 28.7266 28.8203C28.7266 29.2161 28.6667 29.5807 28.5469 29.9141C28.4323 30.2422 28.2656 30.5365 28.0469 30.7969C27.8333 31.0521 27.5729 31.2708 27.2656 31.4531C26.9635 31.6354 26.6224 31.776 26.2422 31.875V31.9062C26.4453 32.0208 26.6224 32.1484 26.7734 32.2891C26.9245 32.4245 27.0677 32.5651 27.2031 32.7109C27.3385 32.8568 27.4714 33.0234 27.6016 33.2109C27.737 33.3932 27.8854 33.6068 28.0469 33.8516L30.0391 37ZM23.2344 27.3047V30.9453H24.7812C25.0677 30.9453 25.3307 30.901 25.5703 30.8125C25.8151 30.724 26.026 30.5964 26.2031 30.4297C26.3802 30.263 26.5182 30.0599 26.6172 29.8203C26.7161 29.5807 26.7656 29.3125 26.7656 29.0156C26.7656 28.4792 26.5964 28.0599 26.2578 27.7578C25.9193 27.4557 25.4323 27.3047 24.7969 27.3047H23.2344ZM38.9609 36.5312C38.1172 36.9688 37.0677 37.1875 35.8125 37.1875C34.1875 37.1875 32.8854 36.6745 31.9062 35.6484C30.9271 34.6224 30.4375 33.276 30.4375 31.6094C30.4375 29.8177 30.987 28.3698 32.0859 27.2656C33.1901 26.1615 34.5833 25.6094 36.2656 25.6094C37.349 25.6094 38.2474 25.763 38.9609 26.0703V27.9141C38.2057 27.4661 37.3724 27.2422 36.4609 27.2422C35.2474 27.2422 34.263 27.6302 33.5078 28.4062C32.7578 29.1823 32.3828 30.2188 32.3828 31.5156C32.3828 32.75 32.7344 33.7344 33.4375 34.4688C34.1406 35.1979 35.0651 35.5625 36.2109 35.5625C37.2682 35.5625 38.1849 35.3125 38.9609 34.8125V36.5312Z" fill="#1AD079"/>
</svg>
